# xmcd
#
# Track frame offsets: 
#        150
#        16522
#        33117
#        52925
#        66187
#        83757
#        100000
#        118847
#        132887
#        148895
#
# Disc length: 2195 seconds
#
# Revision: 0
# Processed by: cddbd v1.4PL0 Copyright (c) Steve Scherf et al.
# Submitted via: ExactAudioCopy v0.90b3
#
DISCID=7908910a
DTITLE=Kris Kristofferson - Surreal Thing
DYEAR=1900
DGENRE=Country
TTITLE0=You Show Me Yours (And I'll Show You Mine)
TTITLE1=Killing Time
TTITLE2=The Prisoner
TTITLE3=Eddie The Eunuch
TTITLE4=It's Never Gonna Be The Same Again
TTITLE5=I Got A Life Of My Own
TTITLE6=The Stranger I Love
TTITLE7=The Golden Idol
TTITLE8=Bad Love Story
TTITLE9=If You Don't Like Hank Williams
EXTD=
EXTT0=
EXTT1=
EXTT2=
EXTT3=
EXTT4=
EXTT5=
EXTT6=
EXTT7=
EXTT8=
EXTT9=
PLAYORDER=
